<svg width="151" height="151" viewBox="0 0 151 151" fill="none" xmlns="http://www.w3.org/2000/svg">
<g clip-path="url(#clip0)">
<path d="M29.1257 104.539C40.5021 104.539 49.7575 95.2828 49.7575 83.9064C49.7575 72.53 40.5021 63.2734 29.1257 63.2734C17.7482 63.2734 8.49268 72.53 8.49268 83.9064C8.49268 95.2828 17.7482 104.539 29.1257 104.539ZM29.1257 75.0634C34.0011 75.0634 37.9676 79.031 37.9676 83.9064C37.9676 88.7819 34.0011 92.7495 29.1257 92.7495C24.2491 92.7495 20.2826 88.7819 20.2826 83.9064C20.2826 79.031 24.2491 75.0634 29.1257 75.0634Z" fill="#EDA69C"/>
<path d="M29.1258 110.058C13.0653 110.058 0 123.124 0 139.184V145.019C0 148.274 2.63932 150.914 5.89498 150.914H52.3555C55.6124 150.914 58.2505 148.274 58.2505 145.019V139.184C58.2505 123.124 45.1853 110.058 29.1258 110.058ZM11.79 139.124C11.8234 129.593 19.587 121.849 29.1258 121.849C38.6636 121.849 46.4272 129.593 46.4606 139.124H11.79Z" fill="#EDA69C"/>
<path d="M145.105 0H75.5434C72.2866 0 69.6484 2.63932 69.6484 5.89498V50.3141L53.5349 71.9333C50.6444 75.8122 53.4162 81.3512 58.2617 81.3512H69.6484V145.019C69.6484 148.274 72.2866 150.914 75.5434 150.914H145.105C148.36 150.914 151 148.274 151 145.019V5.89498C151 2.63932 148.36 0 145.105 0V0ZM139.21 139.124H81.4384V75.4562C81.4384 72.2006 78.7991 69.5612 75.5434 69.5612H70.0079L80.2691 55.7921C81.0283 54.7737 81.4384 53.5387 81.4384 52.2691V11.79H139.21V139.124Z" fill="#EDA69C"/>
<path d="M110.324 67.3632C124.132 67.3632 135.378 56.1285 135.378 42.3098C135.378 28.4945 124.139 17.2552 110.324 17.2552C96.5098 17.2552 85.2705 28.4945 85.2705 42.3098C85.2705 56.1239 96.5098 67.3632 110.324 67.3632ZM123.588 42.3098C123.588 43.789 123.341 45.2106 122.893 46.5401L116.219 39.8674V30.4323C120.582 32.6061 123.588 37.1118 123.588 42.3098ZM104.429 30.4323V42.3098C104.429 43.8731 105.05 45.3719 106.156 46.4778L114.555 54.8774C113.225 55.3267 111.803 55.5732 110.324 55.5732C103.011 55.5732 97.0605 49.6229 97.0605 42.3098C97.0605 37.1118 100.066 32.6061 104.429 30.4323Z" fill="#EDA69C"/>
<path d="M92.7451 92.7495C89.4894 92.7495 86.8501 95.3876 86.8501 98.6445V121.832C86.8501 125.087 89.4894 127.727 92.7451 127.727C96.0007 127.727 98.6401 125.087 98.6401 121.832V98.6445C98.6401 95.3876 96.0007 92.7495 92.7451 92.7495Z" fill="#EDA69C"/>
<path d="M110.324 81.1554C107.068 81.1554 104.429 83.7947 104.429 87.0503V121.832C104.429 125.087 107.068 127.727 110.324 127.727C113.579 127.727 116.219 125.087 116.219 121.832V87.0503C116.219 83.7947 113.579 81.1554 110.324 81.1554Z" fill="#EDA69C"/>
<path d="M127.722 104.342C124.466 104.342 121.827 106.982 121.827 110.237V121.832C121.827 125.087 124.466 127.727 127.722 127.727C130.978 127.727 133.617 125.087 133.617 121.832V110.237C133.617 106.982 130.978 104.342 127.722 104.342Z" fill="#EDA69C"/>
</g>
<defs>
<clipPath id="clip0">
<rect width="151" height="151" fill="white"/>
</clipPath>
</defs>
</svg>
